<?xml version="1.0" encoding="utf-8"?>
<!-- Generator: Adobe Illustrator 16.0.0, SVG Export Plug-In . SVG Version: 6.00 Build 0)  -->
<!DOCTYPE svg PUBLIC "-//W3C//DTD SVG 1.1//EN" "http://www.w3.org/Graphics/SVG/1.1/DTD/svg11.dtd">
<svg version="1.1" id="Layer_1" xmlns="http://www.w3.org/2000/svg" xmlns:xlink="http://www.w3.org/1999/xlink" x="0px" y="0px"
	 width="500px" height="500px" viewBox="0 0 500 500" enable-background="new 0 0 500 500" xml:space="preserve">
<g>
	<defs>
		<rect id="SVGID_1_" width="500" height="500"/>
	</defs>
	<clipPath id="SVGID_2_">
		<use xlink:href="#SVGID_1_"  overflow="visible"/>
	</clipPath>
	
		<rect x="-23.5" y="-22.5" clip-path="url(#SVGID_2_)" fill="#333333" stroke="#231F20" stroke-miterlimit="10" width="546" height="546"/>
	
		<rect x="70.911" y="-754.089" transform="matrix(0.7071 0.7071 -0.7071 0.7071 72.6369 -513.361)" clip-path="url(#SVGID_2_)" fill="#FFFFFF" fill-opacity="0.1" width="1170.179" height="1170.179"/>
</g>
<path fill="#FFFFFF" d="M205.037,128.654c21.211,35.618,42.44,71.203,63.669,106.787c-26.882,39.055-55.901,77.585-83.763,116.843
	c-1.661,2.336-4.69,7.889-5.419,7.922c-1.185,0.068-4.604-6.636-6.094-8.989c-13.611-21.346-27.238-42.644-40.646-64.007
	c-15.795-25.19-31.386-48.451-46.368-73.354c0-28.391,0-56.797,0-85.202C125.928,128.654,165.506,128.654,205.037,128.654z"/>
<path fill="#FFFFFF" d="M320.475,128.654c31.048,0,62.062,0,93.107,0c0,80.886,0,161.789,0,242.692c-16.013,0-32.13,0-48.18,0
	c-15.571-28.188-33.688-54.613-50.345-81.97c-16.658-27.458-33.453-54.851-50.312-82.343
	C283.095,180.676,301.954,154.792,320.475,128.654z"/>
<path fill="#FFFFFF" d="M86.416,237.945c27.983,44.286,56.847,87.693,83.392,133.401c-27.796,0-55.596,0-83.392,0
	C86.416,326.925,86.416,282.402,86.416,237.945z"/>
<path fill="#FFFFFF" d="M351.726,371.347c-6.704,0-13.376,0-20.111,0c-27.121-30.54-53.867-61.4-81.26-91.705
	c7.939-10.275,15.169-21.245,23.023-31.639C301.649,286.955,325.214,330.648,351.726,371.347z"/>
</svg>
